# xmcd
#
# Track frame offsets:
#	150
#	16433
#	34973
#	50620
#	65170
#	81223
#	96149
#	108341
#	121465
#	138196
#	157149
#	174447
#	192559
#	210711
#	231993
#	259369
#
# Disc length: 3464 seconds
#
# Revision: 2
# Processed by: cddbd v1.5.2PL0 Copyright (c) Steve Scherf et al.
# Submitted via: audiograbber 1.83.01
#
DISCID=ef0d8610
DTITLE=All Star Karaoke - ASK1538
DYEAR=2005
DGENRE=Country
TTITLE0=Andy Griggs - If Heaven
TTITLE1=Blaine Larsen - How Do You Get That Lonely
TTITLE2=Dierks Bentley - How Am I Doin'
TTITLE3=Gretchen Wilson - When It Rains
TTITLE4=Jimmy Buffett w Martina McBride - Trip Around The Sun
TTITLE5=Jo Dee Messina - My Give A Damn's Busted
TTITLE6=Josh Gracin - Nothin' To Lose
TTITLE7=LeAnn Rimes - Nothin' 'Bout Love Makes Sense
TTITLE8=Miranda Lambert - Me And Charlie Talking
TTITLE9=Montgomery Gentry - Gone
TTITLE10=Rascal Flatts - Bless The Broken Road
TTITLE11=Shania Twain - Don't 
TTITLE12=Terri Clark - I Think The World Needs A Drink
TTITLE13=Tim McGraw - Drugs Or Jesus
TTITLE14=Toby Keith - Honky Tonk U
TTITLE15=data - Data Track
EXTD=
EXTT0=
EXTT1=
EXTT2=
EXTT3=
EXTT4=
EXTT5=
EXTT6=
EXTT7=
EXTT8=
EXTT9=
EXTT10=
EXTT11=
EXTT12=
EXTT13=
EXTT14=
EXTT15=
PLAYORDER=
